# xmcd
#
# Track frame offsets:
#	150
#	24264
#	44379
#	60796
#	68871
#	92301
#	138732
#	213820
#	248307
#
# Disc length: 3551 seconds
#
# Revision: 1
# Processed by: cddbd v1.5.2PL0 Copyright (c) Steve Scherf et al.
# Submitted via: audiograbber 1.83.01
#
DISCID=660ddd09
DTITLE=Grateful Dead - 72-10-30A Ford Auditorium, Detroit MI
DYEAR=1900
DGENRE=
TTITLE0=Jack Straw
TTITLE1=Don't Ease Me In
TTITLE2=Mexicali Blues
TTITLE3=Tuning
TTITLE4=Box Of Rain
TTITLE5=Playing In The Band
TTITLE6=Truckin'
TTITLE7=Ramble On Rose
TTITLE8=Promised Land
EXTD=
EXTT0=
EXTT1=
EXTT2=
EXTT3=
EXTT4=
EXTT5=
EXTT6=
EXTT7=
EXTT8=
PLAYORDER=
